<svg width="30" height="30" viewBox="0 0 30 30" fill="none" xmlns="http://www.w3.org/2000/svg">
<path d="M27.5049 20.925V5.83749C27.5049 4.33749 26.2799 3.22499 24.7924 3.34999H24.7174C22.0924 3.57499 18.1049 4.91249 15.8799 6.31249L15.6674 6.44999C15.3049 6.67499 14.7049 6.67499 14.3424 6.44999L14.0299 6.26249C11.8049 4.87499 7.82988 3.54999 5.20488 3.33749C3.71738 3.21249 2.50488 4.33749 2.50488 5.82499V20.925C2.50488 22.125 3.47988 23.25 4.67988 23.4L5.04238 23.45C7.75488 23.8125 11.9424 25.1875 14.3424 26.5L14.3924 26.525C14.7299 26.7125 15.2674 26.7125 15.5924 26.525C17.9924 25.2 22.1924 23.8125 24.9174 23.45L25.3299 23.4C26.5299 23.25 27.5049 22.125 27.5049 20.925Z" stroke="white" stroke-width="1.5" stroke-linecap="round" stroke-linejoin="round"/>
<path d="M15.0049 6.86249V25.6125" stroke="white" stroke-width="1.5" stroke-linecap="round" stroke-linejoin="round"/>
<path d="M9.69238 10.6125H6.87988" stroke="#00DEFF" stroke-width="1.5" stroke-linecap="round" stroke-linejoin="round"/>
<path d="M10.6299 14.3625H6.87988" stroke="#00DEFF" stroke-width="1.5" stroke-linecap="round" stroke-linejoin="round"/>
</svg>
