<svg width="30" height="30" viewBox="0 0 30 30" fill="none" xmlns="http://www.w3.org/2000/svg">
<path d="M3.9624 9.30005L14.9999 15.6875L25.9624 9.33751" stroke="white" stroke-width="1.5" stroke-linecap="round" stroke-linejoin="round"/>
<path d="M14.9998 27.0126V15.675" stroke="white" stroke-width="1.5" stroke-linecap="round" stroke-linejoin="round"/>
<path d="M12.4125 3.1L5.73753 6.81254C4.22503 7.65004 2.98755 9.75002 2.98755 11.475V18.5375C2.98755 20.2625 4.22503 22.3625 5.73753 23.2L12.4125 26.9126C13.8375 27.7001 16.175 27.7001 17.6 26.9126L24.275 23.2C25.7875 22.3625 27.025 20.2625 27.025 18.5375V11.475C27.025 9.75002 25.7875 7.65004 24.275 6.81254L17.6 3.1C16.1625 2.3 13.8375 2.3 12.4125 3.1Z" stroke="white" stroke-width="1.5" stroke-linecap="round" stroke-linejoin="round"/>
<path d="M21.2499 16.55V11.9751L9.38745 5.125" stroke="#00DEFF" stroke-width="1.5" stroke-linecap="round" stroke-linejoin="round"/>
</svg>
