<svg width="30" height="30" viewBox="0 0 30 30" fill="none" xmlns="http://www.w3.org/2000/svg">
<path d="M3.9668 9.29999L15.0043 15.6875L25.9668 9.33745" stroke="white" stroke-width="1.5" stroke-linecap="round" stroke-linejoin="round"/>
<path d="M15.0039 27.0124V15.6749" stroke="white" stroke-width="1.5" stroke-linecap="round" stroke-linejoin="round"/>
<path d="M27.0172 11.4625V18.5375C27.0172 18.6 27.0172 18.65 27.0047 18.7125C26.1297 17.95 25.0047 17.5 23.7547 17.5C22.5797 17.5 21.4922 17.9125 20.6297 18.6C19.4797 19.5125 18.7547 20.925 18.7547 22.5C18.7547 23.4375 19.0172 24.325 19.4797 25.075C19.5922 25.275 19.7297 25.4625 19.8797 25.6375L17.5922 26.9C16.1672 27.7 13.8422 27.7 12.4172 26.9L5.74218 23.2C4.22968 22.3625 2.99219 20.2625 2.99219 18.5375V11.4625C2.99219 9.7375 4.22968 7.63753 5.74218 6.80003L12.4172 3.1C13.8422 2.3 16.1672 2.3 17.5922 3.1L24.2672 6.80003C25.7797 7.63753 27.0172 9.7375 27.0172 11.4625Z" stroke="white" stroke-width="1.5" stroke-linecap="round" stroke-linejoin="round"/>
<path d="M28.7549 22.5C28.7549 23.4375 28.4924 24.325 28.0299 25.075C27.7674 25.525 27.4299 25.925 27.0424 26.25C26.1674 27.0375 25.0174 27.5 23.7549 27.5C22.2299 27.5 20.8674 26.8125 19.9674 25.7375C19.9424 25.7 19.9049 25.675 19.8799 25.6375C19.7299 25.4625 19.5924 25.275 19.4799 25.075C19.0174 24.325 18.7549 23.4375 18.7549 22.5C18.7549 20.925 19.4799 19.5125 20.6299 18.6C21.4924 17.9125 22.5799 17.5 23.7549 17.5C25.0049 17.5 26.1299 17.95 27.0049 18.7125C27.1549 18.825 27.2924 18.9625 27.4174 19.1C28.2424 20 28.7549 21.1875 28.7549 22.5Z" stroke="#00DEFF" stroke-width="1.5" stroke-miterlimit="10" stroke-linecap="round" stroke-linejoin="round"/>
<path d="M25.6176 22.475H21.8926" stroke="#00DEFF" stroke-width="1.5" stroke-miterlimit="10" stroke-linecap="round" stroke-linejoin="round"/>
<path d="M23.7549 20.65V24.3875" stroke="#00DEFF" stroke-width="1.5" stroke-miterlimit="10" stroke-linecap="round" stroke-linejoin="round"/>
</svg>
