<svg width="30" height="30" viewBox="0 0 30 30" fill="none" xmlns="http://www.w3.org/2000/svg">
<path d="M17.7801 12.225L15.0051 13.6125M15.0051 13.6125L12.2301 12.225M15.0051 13.6125V17.0875M17.7801 3.8875L15.0051 2.5L12.2301 3.8875M6.66758 23.3375L3.89258 21.95V18.475M23.3426 23.3375L26.1176 21.95V18.475" stroke="#00DEFF" stroke-width="1.5" stroke-linecap="round" stroke-linejoin="round"/>
<path d="M26.1178 8.63751L23.3428 10.025" stroke="white" stroke-width="1.5" stroke-linecap="round" stroke-linejoin="round"/>
<path d="M26.1178 8.6375L23.3428 7.25" stroke="white" stroke-width="1.5" stroke-linecap="round" stroke-linejoin="round"/>
<path d="M26.1182 8.63751V12.1125" stroke="white" stroke-width="1.5" stroke-linecap="round" stroke-linejoin="round"/>
<path d="M3.89258 8.6375L6.66758 7.25" stroke="white" stroke-width="1.5" stroke-linecap="round" stroke-linejoin="round"/>
<path d="M3.89258 8.63751L6.66758 10.025" stroke="white" stroke-width="1.5" stroke-linecap="round" stroke-linejoin="round"/>
<path d="M3.89258 8.63751V12.1125" stroke="white" stroke-width="1.5" stroke-linecap="round" stroke-linejoin="round"/>
<path d="M15.0055 28.0875L12.2305 26.7" stroke="white" stroke-width="1.5" stroke-linecap="round" stroke-linejoin="round"/>
<path d="M15.0049 28.0875L17.7799 26.7" stroke="white" stroke-width="1.5" stroke-linecap="round" stroke-linejoin="round"/>
<path d="M15.0049 28.0875V24.6125" stroke="white" stroke-width="1.5" stroke-linecap="round" stroke-linejoin="round"/>
</svg>
