<svg width="30" height="30" viewBox="0 0 30 30" fill="none" xmlns="http://www.w3.org/2000/svg">
<path d="M17.8 18.0874C17.8 14.8249 15.15 12.1749 11.8875 12.1749" stroke="#00DEFF" stroke-width="1.5" stroke-linecap="round" stroke-linejoin="round"/>
<path d="M27.2625 4.92497C25.3375 9.72497 20.5125 16.25 16.475 19.4875L14.0125 21.4625C13.7 21.6875 13.3875 21.8875 13.0375 22.025C13.0375 21.8 13.025 21.55 12.9875 21.3125C12.85 20.2625 12.375 19.2875 11.5375 18.45C10.6875 17.6 9.65002 17.1 8.58752 16.9625C8.33752 16.95 8.08752 16.925 7.83752 16.95C7.97502 16.5625 8.18752 16.2 8.45002 15.9L10.4 13.4375C13.625 9.39997 20.175 4.54997 24.9625 2.63747C25.7 2.36247 26.4125 2.56247 26.8625 3.02497C27.3375 3.48747 27.5625 4.19997 27.2625 4.92497Z" stroke="white" stroke-width="1.5" stroke-linecap="round" stroke-linejoin="round"/>
<path d="M13.0375 22.025C13.0375 23.4 12.5125 24.7125 11.525 25.7125C10.7625 26.475 9.72498 27 8.48748 27.1625L5.41248 27.5C3.73748 27.6875 2.29998 26.2625 2.49998 24.5625L2.83748 21.4875C3.13748 18.75 5.42498 17 7.84998 16.95C8.09998 16.9375 8.36248 16.95 8.59998 16.9625C9.66248 17.1 10.7 17.5875 11.55 18.45C12.3875 19.2875 12.8625 20.2625 13 21.3125C13.0125 21.55 13.0375 21.7875 13.0375 22.025Z" stroke="#00DEFF" stroke-width="1.5" stroke-linecap="round" stroke-linejoin="round"/>
</svg>
