<svg width="31" height="30" viewBox="0 0 31 30" fill="none" xmlns="http://www.w3.org/2000/svg">
<path d="M27.835 16.25V11.25C27.835 5 25.335 2.5 19.085 2.5H11.585C5.33496 2.5 2.83496 5 2.83496 11.25V18.75C2.83496 25 5.33496 27.5 11.585 27.5H16.585" stroke="white" stroke-width="1.5" stroke-linecap="round" stroke-linejoin="round"/>
<path d="M27.835 16.25V11.25C27.835 5 25.335 2.5 19.085 2.5H11.585C5.33496 2.5 2.83496 5 2.83496 11.25V18.75C2.83496 25 5.33496 27.5 11.585 27.5H16.585" stroke="white" stroke-width="1.5" stroke-linecap="round" stroke-linejoin="round"/>
<path d="M27.835 16.25V11.25C27.835 5 25.335 2.5 19.085 2.5H11.585C5.33496 2.5 2.83496 5 2.83496 11.25V18.75C2.83496 25 5.33496 27.5 11.585 27.5H16.585" stroke="white" stroke-width="1.5" stroke-linecap="round" stroke-linejoin="round"/>
<path d="M20.335 24.2875L22.31 26.25L26.585 21.25" stroke="#00DEFF" stroke-width="1.5" stroke-linecap="round" stroke-linejoin="round"/>
<path d="M9.08496 13.125V16.875" stroke="#00DEFF" stroke-width="1.5" stroke-linecap="round" stroke-linejoin="round"/>
<path d="M15.335 13.125V16.875" stroke="#00DEFF" stroke-width="1.5" stroke-linecap="round" stroke-linejoin="round"/>
<path d="M21.585 13.125V16.875" stroke="#00DEFF" stroke-width="1.5" stroke-linecap="round" stroke-linejoin="round"/>
</svg>
