<svg width="15" height="12" viewBox="0 0 15 12" fill="none" xmlns="http://www.w3.org/2000/svg">
<path id="stage-icon" d="M14.7017 0.377551C14.8667 0.524369 14.9666 0.730679 14.9796 0.951154C14.9926 1.17163 14.9175 1.38823 14.7708 1.55338L5.88252 11.5534C5.80433 11.6414 5.7084 11.7118 5.60103 11.76C5.49366 11.8082 5.3773 11.8332 5.2596 11.8332C5.1419 11.8332 5.02553 11.8082 4.91817 11.76C4.8108 11.7118 4.71487 11.6414 4.63668 11.5534L0.192515 6.55338C0.0542801 6.3871 -0.013905 6.17359 0.00236337 5.95797C0.0186317 5.74234 0.118079 5.54148 0.279698 5.39782C0.441317 5.25416 0.652451 5.17895 0.868498 5.18807C1.08454 5.19719 1.28858 5.28994 1.43751 5.44672L5.25918 9.74588L13.5258 0.445884C13.6728 0.281014 13.8792 0.18121 14.0996 0.168397C14.3201 0.155584 14.5366 0.230811 14.7017 0.377551Z" fill="#00DEFF"/>
</svg>
