<svg width="31" height="30" viewBox="0 0 31 30" fill="none" xmlns="http://www.w3.org/2000/svg">
<path d="M4 15L22 15" stroke="#00DEFF" stroke-width="1.5" stroke-linecap="round" stroke-linejoin="round"/>
<path d="M22.9025 13.0875V22.2375C22.9025 25.15 20.54 27.5 17.64 27.5H8.42754C5.52754 27.5 3.16504 25.1375 3.16504 22.2375V13.0875C3.16504 10.175 5.52754 7.825 8.42754 7.825H17.64C20.54 7.825 22.9025 10.1875 22.9025 13.0875Z" stroke="white" stroke-width="1.5" stroke-linecap="round" stroke-linejoin="round"/>
<path d="M7.54004 5V2.8125" stroke="#00DEFF" stroke-width="1.5" stroke-linecap="round" stroke-linejoin="round"/>
<path d="M12.54 5V2.8125" stroke="#00DEFF" stroke-width="1.5" stroke-linecap="round" stroke-linejoin="round"/>
<path d="M17.54 5V2.8125" stroke="#00DEFF" stroke-width="1.5" stroke-linecap="round" stroke-linejoin="round"/>
<path d="M28.1648 16.45C28.1648 19.35 25.8023 21.7125 22.9023 21.7125V11.1875C25.8023 11.1875 28.1648 13.5375 28.1648 16.45Z" stroke="white" stroke-width="1.5" stroke-linecap="round" stroke-linejoin="round"/>
</svg>
