<svg width="30" height="30" viewBox="0 0 30 30" fill="none" xmlns="http://www.w3.org/2000/svg">
<path d="M27.5049 13.875V8.625C27.5049 4.25 25.7549 2.5 21.3799 2.5H16.1299C11.7549 2.5 10.0049 4.25 10.0049 8.625V10H13.8799C18.2549 10 20.0049 11.75 20.0049 16.125V20H21.3799C25.7549 20 27.5049 18.25 27.5049 13.875Z" stroke="white" stroke-width="1.5" stroke-linecap="round" stroke-linejoin="round"/>
<path d="M20.0049 21.375V16.125C20.0049 11.75 18.2549 10 13.8799 10H8.62988C4.25488 10 2.50488 11.75 2.50488 16.125V21.375C2.50488 25.75 4.25488 27.5 8.62988 27.5H13.8799C18.2549 27.5 20.0049 25.75 20.0049 21.375Z" stroke="white" stroke-width="1.5" stroke-linecap="round" stroke-linejoin="round"/>
<path d="M7.60498 18.75L10.0425 21.1875L14.905 16.3125" stroke="#00DEFF" stroke-width="1.5" stroke-linecap="round" stroke-linejoin="round"/>
</svg>
