<svg width="50" height="50" viewBox="0 0 50 50" fill="none" xmlns="http://www.w3.org/2000/svg">
<g id="vuesax/twotone/crown">
<g id="vuesax/twotone/crown_2">
<g id="crown">
<path id="Vector" d="M34.7917 39.5416H15.2083C14.3333 39.5416 13.3542 38.8541 13.0625 38.0208L4.4375 13.8958C3.20834 10.4375 4.64584 9.37496 7.60417 11.5L15.7292 17.3125C17.0833 18.25 18.625 17.7708 19.2083 16.25L22.875 6.47913C24.0417 3.35413 25.9792 3.35413 27.1458 6.47913L30.8125 16.25C31.3958 17.7708 32.9375 18.25 34.2708 17.3125L41.8958 11.875C45.1458 9.54163 46.7083 10.7291 45.375 14.5L36.9583 38.0625C36.6458 38.8541 35.6667 39.5416 34.7917 39.5416Z" stroke="#00DEFF" stroke-width="3" stroke-linecap="round" stroke-linejoin="round"/>
<path id="Vector_2" d="M13.5417 45.8334H36.4583" stroke="white" stroke-width="1.5" stroke-linecap="round" stroke-linejoin="round"/>
<path id="Vector_3" d="M19.7917 29.1666H30.2083" stroke="white" stroke-width="1.5" stroke-linecap="round" stroke-linejoin="round"/>
</g>
</g>
</g>
</svg>
