<svg width="30" height="30" viewBox="0 0 30 30" fill="none" xmlns="http://www.w3.org/2000/svg">
<g clip-path="url(#clip0_1443_2462)">
<path d="M24.81 6.94012C23.27 10.7801 19.41 16.0001 16.18 18.5901L14.21 20.1701C13.96 20.3501 13.71 20.5101 13.43 20.6201C13.43 20.4401 13.42 20.2401 13.39 20.0501C13.28 19.2101 12.9 18.4301 12.23 17.7601C11.55 17.0801 10.72 16.6801 9.87002 16.5701C9.67002 16.5601 9.47002 16.5401 9.27002 16.5601C9.38002 16.2501 9.55002 15.9601 9.76002 15.7201L11.32 13.7501C13.9 10.5201 19.14 6.64012 22.97 5.11012C23.56 4.89012 24.13 5.05012 24.49 5.42012C24.87 5.79012 25.05 6.36012 24.81 6.94012Z" stroke="white" stroke-width="1.5" stroke-linecap="round" stroke-linejoin="round"/>
<path d="M13.4298 20.6201C13.4298 21.7201 13.0098 22.77 12.2198 23.57C11.6098 24.18 10.7798 24.6001 9.78979 24.7301L7.32979 25.0001C5.98979 25.1501 4.83979 24.01 4.99979 22.65L5.26979 20.1901C5.50979 18.0001 7.33979 16.6001 9.27979 16.5601C9.47979 16.5501 9.68979 16.56 9.87979 16.57C10.7298 16.68 11.5598 17.0701 12.2398 17.7601C12.9098 18.4301 13.2898 19.21 13.3998 20.05C13.4098 20.24 13.4298 20.4301 13.4298 20.6201Z" stroke="white" stroke-width="1.5" stroke-linecap="round" stroke-linejoin="round"/>
<path d="M17.2398 17.47C17.2398 14.86 15.1198 12.74 12.5098 12.74" stroke="white" stroke-width="1.5" stroke-linecap="round" stroke-linejoin="round"/>
<path d="M23.1202 15.73L23.8602 16.46C25.3502 17.95 25.3502 19.42 23.8602 20.91L20.9002 23.87C19.4302 25.34 17.9402 25.34 16.4702 23.87" stroke="#00DEFF" stroke-width="1.5" stroke-linecap="round"/>
<path d="M6.10982 13.5101C4.63982 12.0201 4.63982 10.5501 6.10982 9.06006L9.06982 6.10006C10.5398 4.63006 12.0298 4.63006 13.4998 6.10006L14.2398 6.84006" stroke="#00DEFF" stroke-width="1.5" stroke-linecap="round"/>
<path d="M14.2498 6.8501L10.5498 10.5501" stroke="#00DEFF" stroke-width="1.5" stroke-linecap="round"/>
<path d="M23.1202 15.73L20.1602 18.68" stroke="#00DEFF" stroke-width="1.5" stroke-linecap="round"/>
</g>
<defs>
<clipPath id="clip0_1443_2462">
<rect width="24" height="24" fill="white" transform="translate(3 3)"/>
</clipPath>
</defs>
</svg>
