<svg width="22" height="22" viewBox="0 0 22 22" fill="none" xmlns="http://www.w3.org/2000/svg">
<g id="Icon" clip-path="url(#clip0_1322_2863)">
<g id="Clip path group">
<mask id="mask0_1322_2863" style="mask-type:luminance" maskUnits="userSpaceOnUse" x="1" y="0" width="21" height="22">
<g id="clip0_1003_49">
<path id="Vector" d="M21.4858 0.791626H1.06909V21.2083H21.4858V0.791626Z" fill="white"/>
</g>
</mask>
<g mask="url(#mask0_1322_2863)">
<g id="Group">
<path id="Vector_2" d="M18.3527 4.32663C17.0514 3.72954 15.6559 3.28963 14.1969 3.03768C14.1704 3.03282 14.1438 3.04497 14.1301 3.06928C13.9507 3.38846 13.7519 3.80488 13.6126 4.13218C12.0434 3.89724 10.4822 3.89724 8.94509 4.13218C8.80585 3.7976 8.59988 3.38846 8.41957 3.06928C8.40592 3.04578 8.37938 3.03363 8.35278 3.03768C6.89456 3.28883 5.49913 3.72873 4.19704 4.32663C4.18577 4.33149 4.17611 4.3396 4.16969 4.35012C1.52285 8.30445 0.797764 12.1616 1.15346 15.9709C1.15507 15.9895 1.16554 16.0074 1.18002 16.0187C2.92634 17.3011 4.61794 18.0797 6.27813 18.5958C6.3047 18.6039 6.33286 18.5942 6.34978 18.5723C6.74248 18.036 7.09254 17.4705 7.39273 16.8758C7.4104 16.841 7.39354 16.7997 7.35732 16.7859C6.80204 16.5753 6.2733 16.3185 5.7647 16.0268C5.72447 16.0033 5.72125 15.9458 5.75825 15.9182C5.86528 15.838 5.97234 15.7546 6.07454 15.6703C6.09303 15.6549 6.1188 15.6517 6.14054 15.6614C9.48188 17.1869 13.0992 17.1869 16.4011 15.6614C16.4228 15.6509 16.4486 15.6542 16.4679 15.6695C16.5701 15.7538 16.6772 15.838 16.785 15.9182C16.822 15.9458 16.8196 16.0033 16.7794 16.0268C16.2708 16.3241 15.742 16.5753 15.1859 16.7851C15.1498 16.7989 15.1336 16.841 15.1514 16.8758C15.458 17.4697 15.808 18.0352 16.1935 18.5715C16.2096 18.5942 16.2386 18.6039 16.2651 18.5958C17.9334 18.0797 19.625 17.3011 21.3713 16.0187C21.3866 16.0074 21.3962 15.9903 21.3979 15.9717C21.8236 11.5677 20.6849 7.74224 18.3792 4.35092C18.3736 4.3396 18.3639 4.33149 18.3527 4.32663ZM7.89171 13.6515C6.88569 13.6515 6.05683 12.7279 6.05683 11.5937C6.05683 10.4595 6.86965 9.53587 7.89171 9.53587C8.92176 9.53587 9.74263 10.4676 9.72653 11.5937C9.72653 12.7279 8.91371 13.6515 7.89171 13.6515ZM14.6758 13.6515C13.6698 13.6515 12.8409 12.7279 12.8409 11.5937C12.8409 10.4595 13.6537 9.53587 14.6758 9.53587C15.7058 9.53587 16.5267 10.4676 16.5106 11.5937C16.5106 12.7279 15.7058 13.6515 14.6758 13.6515Z" fill="white"/>
</g>
</g>
</g>
</g>
<defs>
<clipPath id="clip0_1322_2863">
<rect width="21" height="20.4167" fill="white" transform="translate(0.5 0.791626)"/>
</clipPath>
</defs>
</svg>
