<svg xmlns="http://www.w3.org/2000/svg" width="36" height="35" viewBox="0 0 36 35" fill="none">
  <g clip-path="url(#clip0_1003_49)">
    <path d="M30.6046 6.06007C28.3738 5.03649 25.9816 4.28236 23.4804 3.85044C23.4349 3.84211 23.3894 3.86294 23.3659 3.90461C23.0583 4.45179 22.7175 5.16565 22.4788 5.72673C19.7887 5.32398 17.1123 5.32398 14.4773 5.72673C14.2386 5.15317 13.8855 4.45179 13.5764 3.90461C13.553 3.86433 13.5075 3.8435 13.4619 3.85044C10.9621 4.28098 8.56994 5.03511 6.33778 6.06007C6.31846 6.0684 6.3019 6.0823 6.2909 6.10034C1.75345 12.8792 0.51045 19.4914 1.12022 26.0217C1.12298 26.0536 1.14092 26.0842 1.16575 26.1036C4.15943 28.3021 7.05933 29.6368 9.90537 30.5215C9.95092 30.5354 9.99918 30.5187 10.0282 30.4812C10.7014 29.5618 11.3015 28.5924 11.8161 27.573C11.8464 27.5133 11.8175 27.4425 11.7554 27.4188C10.8035 27.0578 9.89709 26.6175 9.02519 26.1175C8.95623 26.0773 8.95071 25.9786 9.01415 25.9314C9.19763 25.7939 9.38116 25.6509 9.55635 25.5064C9.58805 25.48 9.63222 25.4745 9.66949 25.4911C15.3975 28.1063 21.5987 28.1063 27.2591 25.4911C27.2963 25.4731 27.3405 25.4787 27.3736 25.505C27.5488 25.6495 27.7323 25.7939 27.9172 25.9314C27.9806 25.9786 27.9765 26.0773 27.9075 26.1175C27.0356 26.6272 26.1292 27.0578 25.1759 27.4175C25.1139 27.4411 25.0862 27.5133 25.1166 27.573C25.6422 28.591 26.2423 29.5604 26.9031 30.4798C26.9307 30.5187 26.9804 30.5354 27.0259 30.5215C29.8858 29.6368 32.7857 28.3021 35.7793 26.1036C35.8056 26.0842 35.8221 26.055 35.8249 26.0231C36.5547 18.4734 34.6026 11.9154 30.6501 6.10172C30.6404 6.0823 30.6239 6.0684 30.6046 6.06007ZM12.6715 22.0455C10.9469 22.0455 9.52599 20.4622 9.52599 18.5179C9.52599 16.5735 10.9194 14.9902 12.6715 14.9902C14.4373 14.9902 15.8445 16.5874 15.8169 18.5179C15.8169 20.4622 14.4235 22.0455 12.6715 22.0455ZM24.3013 22.0455C22.5768 22.0455 21.1558 20.4622 21.1558 18.5179C21.1558 16.5735 22.5492 14.9902 24.3013 14.9902C26.0671 14.9902 27.4743 16.5874 27.4467 18.5179C27.4467 20.4622 26.0671 22.0455 24.3013 22.0455Z" fill="black"/>
  </g>
  <defs>
    <clipPath id="clip0_1003_49">
      <rect width="35" height="35" fill="black" transform="translate(0.975586)"/>
    </clipPath>
  </defs>
</svg>