<svg width="31" height="30" viewBox="0 0 31 30" fill="none" xmlns="http://www.w3.org/2000/svg">
<path d="M11.5152 15.9H13.6902V20.9625C13.6902 21.7125 14.6152 22.0625 15.1152 21.5L20.4402 15.45C20.9027 14.925 20.5277 14.1 19.8277 14.1H17.6527V9.03747C17.6527 8.28747 16.7277 7.93747 16.2277 8.49997L10.9027 14.55C10.4402 15.075 10.8152 15.9 11.5152 15.9Z" stroke="#00DEFF" stroke-width="1.5" stroke-miterlimit="10" stroke-linecap="round" stroke-linejoin="round"/>
<path d="M15.6274 27.5C22.531 27.5 28.1274 21.9036 28.1274 15C28.1274 8.09644 22.531 2.5 15.6274 2.5C8.72388 2.5 3.12744 8.09644 3.12744 15C3.12744 21.9036 8.72388 27.5 15.6274 27.5Z" stroke="white" stroke-width="1.5" stroke-miterlimit="10" stroke-linecap="round" stroke-linejoin="round"/>
</svg>
