<svg width="30" height="30" viewBox="0 0 30 30" fill="none" xmlns="http://www.w3.org/2000/svg">
<path d="M26.25 8.75V21.25C26.25 25 24.375 27.5 20 27.5H10C5.625 27.5 3.75 25 3.75 21.25V8.75C3.75 5 5.625 2.5 10 2.5H20C24.375 2.5 26.25 5 26.25 8.75Z" stroke="white" stroke-width="1.5" stroke-miterlimit="10" stroke-linecap="round" stroke-linejoin="round"/>
<path d="M20.3125 13.75H9.6875C8.4875 13.75 7.5 12.7625 7.5 11.5625V8.4375C7.5 7.2375 8.4875 6.25 9.6875 6.25H20.3125C21.5125 6.25 22.5 7.2375 22.5 8.4375V11.5625C22.5 12.7625 21.5125 13.75 20.3125 13.75Z" stroke="white" stroke-width="1.5" stroke-miterlimit="10" stroke-linecap="round" stroke-linejoin="round"/>
<path d="M12.875 19.1001L10 21.9751" stroke="#00DEFF" stroke-width="1.5" stroke-miterlimit="10" stroke-linecap="round" stroke-linejoin="round"/>
<path d="M10.0376 19.1375L12.9126 22.0124" stroke="#00DEFF" stroke-width="1.5" stroke-miterlimit="10" stroke-linecap="round" stroke-linejoin="round"/>
<path d="M20.6125 19.1625H20.6376" stroke="#00DEFF" stroke-width="2" stroke-miterlimit="10" stroke-linecap="round" stroke-linejoin="round"/>
<path d="M18.1125 21.875V21.85" stroke="#00DEFF" stroke-width="2" stroke-miterlimit="10" stroke-linecap="round" stroke-linejoin="round"/>
</svg>
