<svg width="30" height="30" viewBox="0 0 30 30" fill="none" xmlns="http://www.w3.org/2000/svg">
<path d="M12.5 21.875H17.5" stroke="white" stroke-width="1.5" stroke-linecap="round" stroke-linejoin="round"/>
<path d="M2.5 21.875V9.375C2.5 4.375 3.75 3.125 8.75 3.125" stroke="white" stroke-width="1.5" stroke-linecap="round" stroke-linejoin="round"/>
<path d="M27.5 21.875V9.375C27.5 4.375 26.25 3.125 21.25 3.125" stroke="white" stroke-width="1.5" stroke-linecap="round" stroke-linejoin="round"/>
<path d="M12.5 19.8875V24C12.5 26.5 11.5 27.5 9 27.5H6C3.5 27.5 2.5 26.5 2.5 24V19.8875C2.5 17.3875 3.5 16.3875 6 16.3875H9C11.5 16.3875 12.5 17.3875 12.5 19.8875Z" stroke="#00DEFF" stroke-width="1.5" stroke-linecap="round" stroke-linejoin="round"/>
<path d="M27.5 19.8875V24C27.5 26.5 26.5 27.5 24 27.5H21C18.5 27.5 17.5 26.5 17.5 24V19.8875C17.5 17.3875 18.5 16.3875 21 16.3875H24C26.5 16.3875 27.5 17.3875 27.5 19.8875Z" stroke="#00DEFF" stroke-width="1.5" stroke-linecap="round" stroke-linejoin="round"/>
</svg>
