<svg width="30" height="30" viewBox="0 0 30 30" fill="none" xmlns="http://www.w3.org/2000/svg">
<path d="M27.5 10.8625C27.5 13.325 26.8625 15.5 25.8625 17.3875C24.7625 16.225 23.2125 15.5001 21.5 15.5001C18.1875 15.5001 15.5 18.1875 15.5 21.5C15.5 23.0375 16.0875 24.4376 17.0375 25.5001C16.575 25.7126 16.15 25.8875 15.775 26.0125C15.35 26.1625 14.65 26.1625 14.225 26.0125C10.6 24.775 2.5 19.6125 2.5 10.8625C2.5 7.00003 5.6125 3.875 9.45 3.875C11.7125 3.875 13.7375 4.97505 15 6.66255C16.2625 4.97505 18.2875 3.875 20.55 3.875C24.3875 3.875 27.5 7.00003 27.5 10.8625Z" stroke="white" stroke-width="1.5" stroke-linecap="round" stroke-linejoin="round"/>
<path d="M27.5 21.5C27.5 22.625 27.1875 23.6874 26.625 24.5874C25.5875 26.3249 23.6875 27.5 21.5 27.5C19.3125 27.5 17.4 26.3249 16.375 24.5874C15.825 23.6874 15.5 22.625 15.5 21.5C15.5 18.1875 18.1875 15.5 21.5 15.5C24.8125 15.5 27.5 18.1875 27.5 21.5Z" stroke="#00DEFF" stroke-width="1.5" stroke-miterlimit="10" stroke-linecap="round" stroke-linejoin="round"/>
<path d="M19.1626 21.4999L20.6376 22.9749L23.8376 20.0249" stroke="#00DEFF" stroke-width="1.5" stroke-linecap="round" stroke-linejoin="round"/>
</svg>
