<svg width="22" height="22" viewBox="0 0 22 22" fill="none" xmlns="http://www.w3.org/2000/svg">
<g id="Icon" clip-path="url(#clip0_1322_2877)">
<g id="Clip path group">
<mask id="mask0_1322_2877" style="mask-type:luminance" maskUnits="userSpaceOnUse" x="1" y="0" width="21" height="22">
<g id="clip0_1003_47">
<path id="Vector" d="M21.4835 0.838745H1.16089V21.1613H21.4835V0.838745Z" fill="white"/>
</g>
</mask>
<g mask="url(#mask0_1322_2877)">
<g id="Group">
<path id="Vector_2" d="M11.3222 2.66857C14.0371 2.66857 14.3587 2.68048 15.4264 2.72811C16.4187 2.77177 16.9545 2.93848 17.3118 3.07741C17.7842 3.25999 18.1255 3.48227 18.4787 3.83553C18.836 4.19276 19.0543 4.53015 19.2369 5.00249C19.3758 5.35973 19.5425 5.89954 19.5862 6.88789C19.6338 7.95957 19.6457 8.28108 19.6457 10.9921C19.6457 13.7071 19.6338 14.0286 19.5862 15.0963C19.5425 16.0886 19.3758 16.6244 19.2369 16.9817C19.0543 17.454 18.832 17.7954 18.4787 18.1486C18.1215 18.5059 17.7842 18.7242 17.3118 18.9068C16.9545 19.0457 16.4148 19.2124 15.4264 19.2561C14.3547 19.3037 14.0332 19.3156 11.3222 19.3156C8.60723 19.3156 8.28572 19.3037 7.21797 19.2561C6.22566 19.2124 5.68981 19.0457 5.33257 18.9068C4.86023 18.7242 4.51888 18.5019 4.16561 18.1486C3.80838 17.7914 3.59007 17.454 3.40748 16.9817C3.26856 16.6244 3.10185 16.0847 3.05819 15.0963C3.01056 14.0246 2.99866 13.7031 2.99866 10.9921C2.99866 8.27715 3.01056 7.95565 3.05819 6.88789C3.10185 5.89557 3.26856 5.35973 3.40748 5.00249C3.59007 4.53015 3.81235 4.18879 4.16561 3.83553C4.52285 3.4783 4.86023 3.25999 5.33257 3.07741C5.68981 2.93848 6.22963 2.77177 7.21797 2.72811C8.28572 2.68048 8.60723 2.66857 11.3222 2.66857ZM11.3222 0.838745C8.56353 0.838745 8.21825 0.850653 7.13462 0.898284C6.05498 0.945915 5.31273 1.12056 4.66971 1.37063C3.99891 1.63259 3.4313 1.97792 2.86767 2.54552C2.30007 3.10916 1.95474 3.67676 1.69277 4.3436C1.4427 4.99059 1.26806 5.72887 1.22043 6.8085C1.1728 7.8961 1.16089 8.24138 1.16089 11C1.16089 13.7587 1.1728 14.104 1.22043 15.1876C1.26806 16.2672 1.4427 17.0095 1.69277 17.6525C1.95474 18.3233 2.30007 18.8909 2.86767 19.4546C3.4313 20.0182 3.99891 20.3675 4.66574 20.6255C5.31273 20.8755 6.05101 21.0502 7.13065 21.0978C8.21426 21.1455 8.5596 21.1573 11.3182 21.1573C14.0768 21.1573 14.4222 21.1455 15.5058 21.0978C16.5854 21.0502 17.3276 20.8755 17.9707 20.6255C18.6375 20.3675 19.2051 20.0182 19.7687 19.4546C20.3324 18.8909 20.6817 18.3233 20.9397 17.6565C21.1897 17.0095 21.3644 16.2712 21.412 15.1916C21.4596 14.108 21.4716 13.7626 21.4716 11.004C21.4716 8.24538 21.4596 7.90003 21.412 6.81644C21.3644 5.73681 21.1897 4.99456 20.9397 4.35154C20.6896 3.67676 20.3443 3.10916 19.7767 2.54552C19.213 1.98189 18.6454 1.6326 17.9786 1.3746C17.3316 1.12453 16.5933 0.949884 15.5137 0.902253C14.4261 0.850653 14.0808 0.838745 11.3222 0.838745Z" fill="white"/>
<path id="Vector_3" d="M11.3222 5.78052C8.4405 5.78052 6.1026 8.11841 6.1026 11.0001C6.1026 13.8818 8.4405 16.2197 11.3222 16.2197C14.2039 16.2197 16.5418 13.8818 16.5418 11.0001C16.5418 8.11841 14.2039 5.78052 11.3222 5.78052ZM11.3222 14.3858C9.45264 14.3858 7.93637 12.8696 7.93637 11.0001C7.93637 9.13055 9.45264 7.61435 11.3222 7.61435C13.1917 7.61435 14.7079 9.13055 14.7079 11.0001C14.7079 12.8696 13.1917 14.3858 11.3222 14.3858Z" fill="white"/>
<path id="Vector_4" d="M17.9667 5.57403C17.9667 6.2488 17.419 6.79259 16.7482 6.79259C16.0734 6.79259 15.5296 6.24483 15.5296 5.57403C15.5296 4.89925 16.0773 4.35547 16.7482 4.35547C17.419 4.35547 17.9667 4.90322 17.9667 5.57403Z" fill="white"/>
</g>
</g>
</g>
</g>
<defs>
<clipPath id="clip0_1322_2877">
<rect width="21" height="21" fill="white" transform="translate(0.5 0.5)"/>
</clipPath>
</defs>
</svg>
