<svg width="30" height="30" viewBox="0 0 30 30" fill="none" xmlns="http://www.w3.org/2000/svg">
<path d="M15.0001 9.86255L13.6626 12.1875C13.3626 12.7 13.6126 13.125 14.2001 13.125H15.7876C16.3876 13.125 16.6251 13.55 16.3251 14.0625L15.0001 16.3875" stroke="#00DEFF" stroke-width="1.5" stroke-linecap="round" stroke-linejoin="round"/>
<path d="M10.3752 22.55V21.1C7.5002 19.3625 5.1377 15.975 5.1377 12.375C5.1377 6.18747 10.8252 1.33748 17.2502 2.73748C20.0752 3.36248 22.5502 5.23748 23.8377 7.82498C26.4502 13.075 23.7002 18.65 19.6627 21.0875V22.5375C19.6627 22.9 19.8002 23.7375 18.4627 23.7375H11.5752C10.2002 23.75 10.3752 23.2125 10.3752 22.55Z" stroke="white" stroke-width="1.5" stroke-linecap="round" stroke-linejoin="round"/>
<path d="M10.625 27.5C13.4875 26.6875 16.5125 26.6875 19.375 27.5" stroke="#00DEFF" stroke-width="1.5" stroke-linecap="round" stroke-linejoin="round"/>
</svg>
