<svg width="50" height="50" viewBox="0 0 50 50" fill="none" xmlns="http://www.w3.org/2000/svg">
<g id="icon">
<g id="vuesax/twotone/layer">
<g id="layer">
<path id="Vector" d="M27.104 6.08337L39.3957 11.5417C42.9373 13.1042 42.9373 15.6875 39.3957 17.25L27.104 22.7084C25.7082 23.3334 23.4165 23.3334 22.0207 22.7084L9.729 17.25C6.18734 15.6875 6.18734 13.1042 9.729 11.5417L22.0207 6.08337C23.4165 5.45837 25.7082 5.45837 27.104 6.08337Z" stroke="#00DEFF" stroke-width="3" stroke-linecap="round" stroke-linejoin="round"/>
<path id="Vector_2" d="M6.25 22.9166C6.25 24.6666 7.5625 26.6875 9.16667 27.3958L23.3125 33.6875C24.3958 34.1666 25.625 34.1666 26.6875 33.6875L40.8333 27.3958C42.4375 26.6875 43.75 24.6666 43.75 22.9166" stroke="white" stroke-width="1.5" stroke-linecap="round" stroke-linejoin="round"/>
<path id="Vector_3" d="M6.25 33.3334C6.25 35.2709 7.39583 37.0209 9.16667 37.8125L23.3125 44.1042C24.3958 44.5834 25.625 44.5834 26.6875 44.1042L40.8333 37.8125C42.6042 37.0209 43.75 35.2709 43.75 33.3334" stroke="white" stroke-width="1.5" stroke-linecap="round" stroke-linejoin="round"/>
</g>
</g>
</g>
</svg>
