<svg width="30" height="30" viewBox="0 0 30 30" fill="none" xmlns="http://www.w3.org/2000/svg">
<path d="M12.0674 17.25L14.0799 18.8125C14.3424 19.075 14.9299 19.1999 15.3174 19.1999H17.7924C18.5674 19.1999 19.4174 18.6124 19.6174 17.8374L21.1799 13.0999C21.5049 12.1874 20.9174 11.4124 19.9424 11.4124H17.3424C16.9549 11.4124 16.6299 11.0874 16.6924 10.6374L17.0174 8.56238C17.1424 7.97488 16.7549 7.32486 16.1674 7.13736C15.6424 6.93736 14.9924 7.19985 14.7424 7.58735L12.0799 11.5499" stroke="#00DEFF" stroke-width="1.5" stroke-miterlimit="10"/>
<path d="M8.75488 17.25V10.8874C8.75488 9.97489 9.14237 9.6499 10.0549 9.6499H10.7049C11.6174 9.6499 12.0049 9.97489 12.0049 10.8874V17.25C12.0049 18.1625 11.6174 18.4875 10.7049 18.4875H10.0549C9.14237 18.4875 8.75488 18.1625 8.75488 17.25Z" stroke="#00DEFF" stroke-width="1.5" stroke-linecap="round" stroke-linejoin="round"/>
<path d="M22.5049 23.575H21.5549C20.5549 23.575 19.6049 23.9625 18.9049 24.6625L16.7674 26.7751C15.7924 27.7376 14.2049 27.7376 13.2299 26.7751L11.0924 24.6625C10.3924 23.9625 9.42988 23.575 8.44238 23.575H7.50488C5.42988 23.575 3.75488 21.9125 3.75488 19.8625V6.22498C3.75488 4.17498 5.42988 2.51251 7.50488 2.51251H22.5049C24.5799 2.51251 26.2549 4.17498 26.2549 6.22498V19.8625C26.2549 21.9 24.5799 23.575 22.5049 23.575Z" stroke="white" stroke-width="1.5" stroke-miterlimit="10" stroke-linecap="round" stroke-linejoin="round"/>
</svg>
