<svg width="22" height="22" viewBox="0 0 22 22" fill="none" xmlns="http://www.w3.org/2000/svg">
<g id="Icon" clip-path="url(#clip0_1322_2870)">
<g id="Clip path group">
<mask id="mask0_1322_2870" style="mask-type:luminance" maskUnits="userSpaceOnUse" x="1" y="0" width="21" height="22">
<g id="clip0_1003_48">
<path id="Vector" d="M21.4835 0.838745H1.16087V21.1613H21.4835V0.838745Z" fill="white"/>
</g>
</mask>
<g mask="url(#mask0_1322_2870)">
<g id="Group">
<path id="Vector_2" d="M19.9791 0.838745H2.66125C1.83168 0.838745 1.16087 1.49367 1.16087 2.3034V19.6927C1.16087 20.5024 1.83168 21.1613 2.66125 21.1613H19.9791C20.8087 21.1613 21.4835 20.5024 21.4835 19.6967V2.3034C21.4835 1.49367 20.8087 0.838745 19.9791 0.838745ZM7.19017 18.1566H4.17354V8.45572H7.19017V18.1566ZM5.68185 7.13398C4.71336 7.13398 3.93141 6.35204 3.93141 5.38751C3.93141 4.42298 4.71336 3.64104 5.68185 3.64104C6.64638 3.64104 7.4283 4.42298 7.4283 5.38751C7.4283 6.34807 6.64638 7.13398 5.68185 7.13398ZM18.4787 18.1566H15.4661V13.4411C15.4661 12.3178 15.4462 10.869 13.8982 10.869C12.3304 10.869 12.0922 12.0956 12.0922 13.3617V18.1566H9.08351V8.45572H11.9731V9.78149H12.0128C12.4137 9.0194 13.3981 8.21361 14.8628 8.21361C17.9151 8.21361 18.4787 10.2221 18.4787 12.8338V18.1566Z" fill="white"/>
</g>
</g>
</g>
</g>
<defs>
<clipPath id="clip0_1322_2870">
<rect width="21" height="21" fill="white" transform="translate(0.5 0.5)"/>
</clipPath>
</defs>
</svg>
