<svg width="31" height="30" viewBox="0 0 31 30" fill="none" xmlns="http://www.w3.org/2000/svg">
<path d="M24.7902 9.89998V16.3375C24.7902 20.1875 22.5902 21.8375 19.2902 21.8375H8.30273C7.74023 21.8375 7.20273 21.7875 6.70273 21.675C6.39023 21.625 6.09024 21.5375 5.81524 21.4375C3.94024 20.7375 2.80273 19.1125 2.80273 16.3375V9.89998C2.80273 6.04998 5.00273 4.40002 8.30273 4.40002H19.2902C22.0902 4.40002 24.1027 5.58752 24.6402 8.30002C24.7277 8.80002 24.7902 9.31248 24.7902 9.89998Z" stroke="white" stroke-width="1.5" stroke-miterlimit="10" stroke-linecap="round" stroke-linejoin="round"/>
<path d="M28.5416 13.6501V20.0877C28.5416 23.9377 26.3416 25.5876 23.0416 25.5876H12.0541C11.1291 25.5876 10.2916 25.4627 9.56661 25.1877C8.07911 24.6377 7.0666 23.5002 6.7041 21.6752C7.2041 21.7877 7.7416 21.8376 8.3041 21.8376H19.2916C22.5916 21.8376 24.7916 20.1877 24.7916 16.3377V9.90013C24.7916 9.31263 24.7416 8.78767 24.6416 8.30017C27.0166 8.80017 28.5416 10.4751 28.5416 13.6501Z" stroke="white" stroke-width="1.5" stroke-miterlimit="10" stroke-linecap="round" stroke-linejoin="round"/>
<path d="M13.7883 16.4249C15.6108 16.4249 17.0883 14.9474 17.0883 13.1248C17.0883 11.3023 15.6108 9.82483 13.7883 9.82483C11.9658 9.82483 10.4883 11.3023 10.4883 13.1248C10.4883 14.9474 11.9658 16.4249 13.7883 16.4249Z" stroke="#00DEFF" stroke-width="1.5" stroke-miterlimit="10" stroke-linecap="round" stroke-linejoin="round"/>
<path d="M6.64062 10.375V15.875" stroke="#00DEFF" stroke-width="1.5" stroke-miterlimit="10" stroke-linecap="round" stroke-linejoin="round"/>
<path d="M20.9424 10.3754V15.8754" stroke="#00DEFF" stroke-width="1.5" stroke-miterlimit="10" stroke-linecap="round" stroke-linejoin="round"/>
</svg>
