<svg width="25" height="24" viewBox="0 0 25 24" fill="none" xmlns="http://www.w3.org/2000/svg">
<path d="M10.665 16.95H6.87504C3.50504 16.95 2.66504 16.11 2.66504 12.74V6.74003C2.66504 3.37003 3.50504 2.53003 6.87504 2.53003H17.405C20.775 2.53003 21.615 3.37003 21.615 6.74003" stroke="white" stroke-width="1.5" stroke-linecap="round" stroke-linejoin="round"/>
<path d="M10.665 21.4699V16.95" stroke="white" stroke-width="1.5" stroke-linecap="round" stroke-linejoin="round"/>
<path d="M2.66504 12.95H10.665" stroke="white" stroke-width="1.5" stroke-linecap="round" stroke-linejoin="round"/>
<path d="M7.40527 21.47H10.6653" stroke="white" stroke-width="1.5" stroke-linecap="round" stroke-linejoin="round"/>
<path d="M22.6648 12.8V18.51C22.6648 20.88 22.0748 21.47 19.7048 21.47H16.1548C13.7848 21.47 13.1948 20.88 13.1948 18.51V12.8C13.1948 10.43 13.7848 9.83997 16.1548 9.83997H19.7048C22.0748 9.83997 22.6648 10.43 22.6648 12.8Z" stroke="#00DEFF" stroke-width="1.5" stroke-linecap="round" stroke-linejoin="round"/>
<path d="M17.9095 18.25H17.9185" stroke="#00DEFF" stroke-width="2" stroke-linecap="round" stroke-linejoin="round"/>
</svg>
