<svg width="31" height="30" viewBox="0 0 31 30" fill="none" xmlns="http://www.w3.org/2000/svg">
<path d="M11.1725 17.5H5.33496C3.95996 17.5 2.83496 18.625 2.83496 20V27.5H11.1725V17.5Z" stroke="white" stroke-width="1.5" stroke-miterlimit="10" stroke-linecap="round" stroke-linejoin="round"/>
<path d="M16.9977 12.5H13.6602C12.2852 12.5 11.1602 13.625 11.1602 15V27.5H19.4977V15C19.4977 13.625 18.3852 12.5 16.9977 12.5Z" stroke="white" stroke-width="1.5" stroke-miterlimit="10" stroke-linecap="round" stroke-linejoin="round"/>
<path d="M25.3351 21.25H19.4976V27.5H27.8351V23.75C27.8351 22.375 26.7101 21.25 25.3351 21.25Z" stroke="white" stroke-width="1.5" stroke-miterlimit="10" stroke-linecap="round" stroke-linejoin="round"/>
<path d="M15.9848 2.58752L16.6473 3.91252C16.7348 4.10002 16.9723 4.27502 17.1723 4.30002L18.3723 4.50002C19.1348 4.62502 19.3223 5.1875 18.7723 5.725L17.8348 6.6625C17.6723 6.825 17.5848 7.12501 17.6348 7.33751L17.8973 8.48752C18.1098 9.40002 17.6223 9.75003 16.8223 9.27503L15.6973 8.61253C15.4973 8.48753 15.1598 8.48753 14.9598 8.61253L13.8348 9.27503C13.0348 9.75003 12.5473 9.40002 12.7598 8.48752L13.0223 7.33751C13.0723 7.12501 12.9848 6.8125 12.8223 6.6625L11.8973 5.73751C11.3473 5.18751 11.5223 4.6375 12.2973 4.5125L13.4973 4.31253C13.6973 4.27503 13.9348 4.10003 14.0223 3.92503L14.6848 2.6C15.0473 1.875 15.6223 1.87502 15.9848 2.58752Z" stroke="#00DEFF" stroke-width="1.5" stroke-linecap="round" stroke-linejoin="round"/>
</svg>
