<svg width="31" height="30" viewBox="0 0 31 30" fill="none" xmlns="http://www.w3.org/2000/svg">
<path d="M21.8652 7.71249C24.3652 9.44999 26.0902 12.2125 26.4402 15.4" stroke="white" stroke-width="1.5" stroke-linecap="round" stroke-linejoin="round"/>
<path d="M5.02734 15.4625C5.35234 12.2875 7.05234 9.52499 9.52734 7.77499" stroke="white" stroke-width="1.5" stroke-linecap="round" stroke-linejoin="round"/>
<path d="M10.9023 26.175C12.3523 26.9125 14.0023 27.325 15.7398 27.325C17.4148 27.325 18.9898 26.95 20.4023 26.2625" stroke="white" stroke-width="1.5" stroke-linecap="round" stroke-linejoin="round"/>
<path d="M15.7396 9.62499C17.6588 9.62499 19.2146 8.06918 19.2146 6.14999C19.2146 4.2308 17.6588 2.67499 15.7396 2.67499C13.8205 2.67499 12.2646 4.2308 12.2646 6.14999C12.2646 8.06918 13.8205 9.62499 15.7396 9.62499Z" stroke="#00DEFF" stroke-width="1.5" stroke-linecap="round" stroke-linejoin="round"/>
<path d="M6.70254 24.9C8.62173 24.9 10.1775 23.3442 10.1775 21.425C10.1775 19.5058 8.62173 17.95 6.70254 17.95C4.78335 17.95 3.22754 19.5058 3.22754 21.425C3.22754 23.3442 4.78335 24.9 6.70254 24.9Z" stroke="#00DEFF" stroke-width="1.5" stroke-linecap="round" stroke-linejoin="round"/>
<path d="M24.6273 24.9C26.5465 24.9 28.1023 23.3442 28.1023 21.425C28.1023 19.5058 26.5465 17.95 24.6273 17.95C22.7082 17.95 21.1523 19.5058 21.1523 21.425C21.1523 23.3442 22.7082 24.9 24.6273 24.9Z" stroke="#00DEFF" stroke-width="1.5" stroke-linecap="round" stroke-linejoin="round"/>
</svg>
