<svg width="30" height="30" viewBox="0 0 30 30" fill="none" xmlns="http://www.w3.org/2000/svg">
<path d="M7.04277 16.35L7.03027 22.2125C7.03027 23.8 8.25527 25.5 9.75527 26L13.7428 27.325C14.4303 27.55 15.5678 27.55 16.2678 27.325L20.2553 26C21.7553 25.5 22.9803 23.8 22.9803 22.2125V16.4125" stroke="white" stroke-width="1.5" stroke-linecap="round" stroke-linejoin="round"/>
<path d="M12.5678 3.16248L5.04277 8.07498C2.63027 9.64998 2.63027 13.175 5.04277 14.75L12.5678 19.6625C13.9178 20.55 16.1428 20.55 17.4928 19.6625L24.9803 14.75C27.3803 13.175 27.3803 9.66248 24.9803 8.08748L17.4928 3.17498C16.1428 2.27498 13.9178 2.27498 12.5678 3.16248Z" stroke="white" stroke-width="1.5" stroke-linecap="round" stroke-linejoin="round"/>
<path d="M26.7549 18.75V11.25" stroke="#00DEFF" stroke-width="1.5" stroke-linecap="round" stroke-linejoin="round"/>
</svg>
