<svg width="31" height="30" viewBox="0 0 31 30" fill="none" xmlns="http://www.w3.org/2000/svg">
<path d="M11.7852 13.5875C11.6602 13.575 11.5102 13.575 11.3727 13.5875C8.39766 13.4875 6.03516 11.05 6.03516 8.05C6.03516 4.9875 8.51016 2.5 11.5852 2.5C14.6477 2.5 17.1352 4.9875 17.1352 8.05C17.1227 11.05 14.7602 13.4875 11.7852 13.5875Z" stroke="white" stroke-width="1.5" stroke-linecap="round" stroke-linejoin="round"/>
<path d="M20.8471 5C23.2721 5 25.2221 6.9625 25.2221 9.375C25.2221 11.7375 23.3471 13.6625 21.0096 13.75C20.9096 13.7375 20.7971 13.7375 20.6846 13.75" stroke="#00DEFF" stroke-width="1.5" stroke-linecap="round" stroke-linejoin="round"/>
<path d="M5.53535 18.2C2.51035 20.225 2.51035 23.525 5.53535 25.5375C8.97285 27.8375 14.6104 27.8375 18.0479 25.5375C21.0729 23.5125 21.0729 20.2125 18.0479 18.2C14.6229 15.9125 8.98535 15.9125 5.53535 18.2Z" stroke="white" stroke-width="1.5" stroke-linecap="round" stroke-linejoin="round"/>
<path d="M23.2598 25C24.1598 24.8125 25.0098 24.45 25.7098 23.9125C27.6598 22.45 27.6598 20.0375 25.7098 18.575C25.0223 18.05 24.1848 17.7 23.2973 17.5" stroke="#00DEFF" stroke-width="1.5" stroke-linecap="round" stroke-linejoin="round"/>
</svg>
