<svg width="300" height="100" viewBox="0 0 300 100" fill="none" xmlns="http://www.w3.org/2000/svg">
<path d="M66.273 52.8311C66.5232 48.3681 68.7087 44.4361 72.0058 41.6488C75.2391 38.9111 79.5912 37.2378 84.3398 37.2378C89.0836 37.2378 93.4357 38.9111 96.6714 41.6488C99.9661 44.4361 102.152 48.3681 102.404 52.8263C102.655 57.4121 100.811 61.6721 97.5777 64.8299C94.2806 68.042 89.591 70.0576 84.3398 70.0576C79.0885 70.0576 74.3895 68.042 71.0948 64.8299C67.859 61.6721 66.0205 57.4121 66.273 52.8311Z" fill="white"/>
<path d="M75.0704 53.2323C75.1988 50.9423 76.3202 48.9248 78.0119 47.4946C79.671 46.0898 81.9041 45.2313 84.3406 45.2313C86.7747 45.2313 89.0077 46.0898 90.668 47.4946C92.3586 48.9248 93.4799 50.9423 93.6095 53.2298C93.7379 55.5828 92.7921 57.7686 91.133 59.3889C89.4413 61.0371 87.035 62.0713 84.3406 62.0713C81.6461 62.0713 79.235 61.0371 77.5445 59.3889C75.8842 57.7686 74.9409 55.5828 75.0704 53.2323Z" fill="#265787"/>
<path d="M60.3087 57.859C60.3244 58.7551 60.6102 60.4966 61.0389 61.8565C61.9399 64.735 63.4681 67.398 65.5946 69.7449C67.7768 72.1572 70.464 74.0947 73.5678 75.4704C76.8302 76.9151 80.3651 77.6514 84.0368 77.6454C87.7025 77.6405 91.2374 76.8897 94.4998 75.4341C97.6036 74.0451 100.288 72.0991 102.467 69.6856C104.592 67.329 106.118 64.6611 107.021 61.7826C107.475 60.3282 107.762 58.852 107.877 57.371C107.99 55.9117 107.943 54.4501 107.736 52.9896C107.331 50.1438 106.347 47.4735 104.831 45.0394C103.444 42.8027 101.657 40.8446 99.5315 39.1964L99.5363 39.1928L78.0884 22.7245C78.0691 22.71 78.0533 22.6942 78.0327 22.6809C76.6256 21.6007 74.2593 21.6044 72.7116 22.687C71.147 23.7817 70.9678 25.5921 72.3604 26.7341L72.3544 26.7402L81.3 34.0146L54.0345 34.0437H53.9982C51.7445 34.0461 49.5781 35.5247 49.1494 37.3932C48.7086 39.2969 50.2393 40.876 52.5825 40.8845L52.5789 40.893L66.3987 40.8664L41.7381 59.7954C41.7066 59.8184 41.6727 59.8426 41.6436 59.8656C39.3173 61.647 38.5653 64.6091 40.0306 66.4837C41.5177 68.3898 44.6796 68.3934 47.0301 66.4946L60.4891 55.4794C60.4891 55.4794 60.2929 56.9665 60.3087 57.859ZM94.8934 62.8386C92.1202 65.6638 88.2378 67.266 84.0368 67.2745C79.8298 67.2817 75.9474 65.6941 73.1742 62.8737C71.8191 61.4993 70.8237 59.9177 70.2097 58.2332C69.6079 56.5778 69.3741 54.8206 69.5291 53.0477C69.6757 51.3148 70.1916 49.6618 71.015 48.1662C71.824 46.6961 72.9381 45.3676 74.3138 44.2438C77.0094 42.0471 80.4414 40.8579 84.0308 40.853C87.6238 40.8482 91.0533 42.0265 93.7514 44.216C95.1247 45.3349 96.2376 46.6585 97.0465 48.1263C97.8736 49.6206 98.3859 51.2676 98.5385 53.0053C98.691 54.7758 98.4573 56.5306 97.8555 58.1872C97.2403 59.8765 96.2485 61.458 94.8934 62.8386Z" fill="#EA7600"/>
<path d="M222.008 53.1947C222.215 50.8841 224.001 49.4188 226.73 49.4188C229.462 49.4188 231.247 50.8841 231.454 53.1947H222.008ZM231.174 58.8997C230.475 60.612 228.828 61.6256 226.592 61.6256C223.791 61.6256 221.905 59.877 221.829 57.1147H237.931V56.3021C237.931 49.3825 233.87 45.494 226.592 45.494C219.524 45.494 215.251 49.4188 215.251 55.5743C215.251 61.7673 219.591 65.6861 226.592 65.6861C230.793 65.6861 234.05 64.2462 236.058 61.7153L231.174 58.8997Z" fill="#265787"/>
<path d="M150.561 53.2056C150.774 50.895 152.56 49.4297 155.291 49.4297C158.018 49.4297 159.803 50.895 160.013 53.2056H150.561ZM159.733 58.9106C159.033 60.6278 157.387 61.6414 155.146 61.6414C152.349 61.6414 150.459 59.8878 150.385 57.1244H166.484V56.3166C166.484 49.3934 162.424 45.5037 155.146 45.5037C148.075 45.5037 143.809 49.4297 143.809 55.5852C143.809 61.7782 148.147 65.697 155.146 65.697C159.345 65.697 162.605 64.2619 164.617 61.7273L159.733 58.9106Z" fill="#265787"/>
<path d="M142.366 41.3098H136.559V65.0658H142.366V41.3098Z" fill="#265787"/>
<path d="M167.929 47.6215H173.768V49.0359C175.835 46.8295 178.318 45.7141 181.118 45.7141C184.343 45.7141 186.784 46.8295 188.045 48.7283C189.097 50.2965 189.166 52.1893 189.166 54.6767V65.0658H183.318V55.9373C183.318 52.1494 182.557 50.4007 179.231 50.4007C175.871 50.4007 173.768 52.4024 173.768 55.7629V65.0658H167.929V47.6215Z" fill="#265787"/>
<path d="M207.971 55.8686C207.971 59.1201 205.798 61.2526 202.436 61.2526C199.072 61.2526 196.9 59.1928 196.9 55.9062C196.9 52.5711 199.043 50.5124 202.436 50.5124C205.798 50.5124 207.971 52.6074 207.971 55.8686ZM207.971 48.4125C206.494 46.8297 204.358 45.9615 201.389 45.9615C194.983 45.9615 190.609 49.9117 190.609 55.8323C190.609 61.6366 194.952 65.697 201.284 65.697C204.186 65.697 206.318 64.9631 207.971 63.3174V65.0661H213.814V39.8036L207.971 41.3101V48.4125Z" fill="#265787"/>
<path d="M123.288 50.5124C126.684 50.5124 128.819 52.5711 128.819 55.9062C128.819 59.1928 126.65 61.2526 123.288 61.2526C119.929 61.2526 117.759 59.1201 117.759 55.8686C117.759 52.6074 119.929 50.5124 123.288 50.5124ZM117.759 41.3101L111.913 39.8036V65.0661H117.759V63.3174C119.403 64.9631 121.538 65.697 124.443 65.697C130.778 65.697 135.116 61.6366 135.116 55.8323C135.116 49.9117 130.741 45.9615 124.338 45.9615C121.363 45.9615 119.228 46.8297 117.759 48.4125V41.3101Z" fill="#265787"/>
<path d="M239.373 65.0659V47.6216H245.216V48.6993C246.966 46.5922 248.817 45.5435 250.923 45.5435C251.341 45.5435 251.867 45.6113 252.566 45.6803V50.6539C252.002 50.58 251.375 50.58 250.709 50.58C247.312 50.58 245.216 52.8203 245.216 56.6301V65.0659H239.373Z" fill="#265787"/>
<path d="M258.791 43.5612C258.791 43.9033 258.647 44.1377 258.359 44.2645L259.074 45.4719H258.308L257.77 44.4516H257.629V45.4719H256.937V42.7071H257.734C258.098 42.7071 258.365 42.7776 258.534 42.9184C258.705 43.0593 258.791 43.2735 258.791 43.5612ZM257.629 43.9445H257.722C257.855 43.9445 257.95 43.9165 258.006 43.8601C258.064 43.8018 258.093 43.7061 258.093 43.5733C258.093 43.4425 258.065 43.35 258.009 43.2957C257.953 43.2414 257.855 43.2141 257.716 43.2141H257.629V43.9445ZM255.6 44.0864C255.6 43.684 255.701 43.3067 255.902 42.9545C256.103 42.6024 256.38 42.3247 256.732 42.1215C257.084 41.9182 257.464 41.8167 257.87 41.8167C258.273 41.8167 258.65 41.9172 259.002 42.1185C259.354 42.3197 259.632 42.5965 259.835 42.9486C260.038 43.3007 260.14 43.6799 260.14 44.0864C260.14 44.4828 260.042 44.8552 259.847 45.2033C259.652 45.5514 259.378 45.83 259.026 46.0393C258.674 46.2485 258.289 46.3532 257.87 46.3532C257.454 46.3532 257.069 46.2496 256.717 46.0424C256.365 45.8331 256.09 45.5543 255.893 45.2062C255.698 44.8581 255.6 44.4848 255.6 44.0864ZM256.029 44.0864C256.029 44.4164 256.111 44.7243 256.276 45.01C256.441 45.2937 256.667 45.5182 256.953 45.6832C257.238 45.8462 257.544 45.9277 257.87 45.9277C258.2 45.9277 258.507 45.8451 258.791 45.6801C259.076 45.5151 259.301 45.2898 259.464 45.0041C259.629 44.7183 259.711 44.4124 259.711 44.0864C259.711 43.7564 259.629 43.4495 259.464 43.1658C259.299 42.8801 259.073 42.6557 258.788 42.4927C258.502 42.3277 258.196 42.2453 257.87 42.2453C257.54 42.2453 257.232 42.3277 256.946 42.4927C256.663 42.6577 256.438 42.8831 256.273 43.1688C256.11 43.4546 256.029 43.7604 256.029 44.0864Z" fill="#265787"/>
</svg>
