<svg width="20" height="20" viewBox="0 0 20 20" fill="none" xmlns="http://www.w3.org/2000/svg">
<g id="GitBook Icon">
<path id="Vector" d="M8.42966 10.5291C9.39246 11.0848 9.87385 11.3627 10.4026 11.3631C10.9312 11.3636 11.4131 11.0866 12.3769 10.5326L18.5204 7.00109C18.7978 6.84167 18.9687 6.54616 18.9687 6.22626C18.9687 5.90635 18.7978 5.61084 18.5204 5.45143L12.3747 1.91866C11.4119 1.36524 10.9306 1.08854 10.4024 1.08875C9.87422 1.08895 9.39308 1.36603 8.43077 1.92019L3.14748 4.96266C3.10831 4.98521 3.08874 4.9965 3.07049 5.00718C1.26576 6.06367 0.150737 7.99247 0.135828 10.0836C0.135677 10.1048 0.135677 10.1274 0.135677 10.1726C0.135677 10.2177 0.135677 10.2403 0.135828 10.2614C0.150704 12.3502 1.26324 14.2772 3.06475 15.3345C3.08295 15.3452 3.10252 15.3565 3.1416 15.3791L6.45105 17.2898C8.37945 18.4032 9.34363 18.9599 10.4025 18.9603C11.4613 18.9606 12.4259 18.4046 14.355 17.2925L17.8486 15.2785C18.8146 14.7217 19.2976 14.4433 19.5628 13.9843C19.828 13.5252 19.828 12.9678 19.828 11.8528V9.69884C19.828 9.38955 19.6605 9.1045 19.3902 8.95398C19.1287 8.80835 18.81 8.8105 18.5505 8.95967L11.3869 13.0775C10.9063 13.3538 10.6659 13.4919 10.4022 13.492C10.1385 13.4921 9.89812 13.3541 9.41732 13.0781L4.56883 10.295C4.32597 10.1556 4.20452 10.0859 4.10699 10.0733C3.88462 10.0446 3.6708 10.1691 3.58609 10.3767C3.54895 10.4678 3.54969 10.6078 3.5512 10.8879C3.55231 11.094 3.55286 11.1971 3.57212 11.2919C3.61529 11.5043 3.72699 11.6965 3.89009 11.8391C3.96292 11.9028 4.05219 11.9544 4.23077 12.0574L9.41459 15.0493C9.89665 15.3275 10.1377 15.4667 10.4023 15.4667C10.667 15.4668 10.9081 15.3278 11.3903 15.0499L17.7441 11.3873C17.9088 11.2923 17.9912 11.2448 18.053 11.2805C18.1147 11.3162 18.1147 11.4113 18.1147 11.6014V12.5783C18.1147 12.8571 18.1147 12.9965 18.0484 13.1112C17.9821 13.226 17.8613 13.2956 17.6198 13.4348L12.3791 16.4557C11.4143 17.0119 10.9319 17.2899 10.4024 17.2897C9.87289 17.2895 9.39074 17.011 8.42646 16.4539L3.52336 13.6216C3.50779 13.6126 3.5 13.6081 3.49274 13.6039C2.46469 13.0031 1.83034 11.9041 1.82439 10.7134C1.82435 10.705 1.82435 10.696 1.82435 10.678V9.78121C1.82435 9.12389 2.17443 8.51632 2.74312 8.18669C3.24563 7.89543 3.86548 7.89484 4.36852 8.18518L8.42966 10.5291Z" fill="#17181C"/>
</g>
</svg>
